<mxfile host="app.diagrams.net" agent="Mozilla/5.0 (Windows NT 10.0; Win64; x64) AppleWebKit/537.36 (KHTML, like Gecko) Chrome/124.0.0.0 Safari/537.36 SLBrowser/9.0.6.2081 SLBChan/33 SLBVPV/64-bit" version="26.1.1">
  <diagram name="第 1 页" id="0lbOjBjULqhaCA4rJ2GL">
    <mxGraphModel dx="1290" dy="1710" grid="1" gridSize="10" guides="1" tooltips="1" connect="1" arrows="1" fold="1" page="1" pageScale="1" pageWidth="827" pageHeight="1169" math="0" shadow="0">
      <root>
        <mxCell id="0" />
        <mxCell id="1" parent="0" />
        <mxCell id="q82wBXD-_0V-6gVfcb_9-2" value="" style="rounded=1;whiteSpace=wrap;html=1;movable=0;resizable=0;rotatable=0;deletable=0;editable=0;locked=1;connectable=0;" vertex="1" parent="1">
          <mxGeometry x="1200" y="1280" width="850" height="810" as="geometry" />
        </mxCell>
        <mxCell id="rCU9mX7-NfS8TRDJsFRv-65" value="" style="rounded=0;whiteSpace=wrap;html=1;" parent="1" vertex="1">
          <mxGeometry x="30" y="1240" width="910" height="340" as="geometry" />
        </mxCell>
        <mxCell id="rCU9mX7-NfS8TRDJsFRv-32" value="" style="rounded=0;whiteSpace=wrap;html=1;" parent="1" vertex="1">
          <mxGeometry x="30" y="430" width="910" height="680" as="geometry" />
        </mxCell>
        <mxCell id="rCU9mX7-NfS8TRDJsFRv-30" value="" style="rounded=0;whiteSpace=wrap;html=1;" parent="1" vertex="1">
          <mxGeometry x="30" y="-100" width="750" height="400" as="geometry" />
        </mxCell>
        <mxCell id="rCU9mX7-NfS8TRDJsFRv-3" value="" style="edgeStyle=orthogonalEdgeStyle;rounded=0;orthogonalLoop=1;jettySize=auto;html=1;" parent="1" source="rCU9mX7-NfS8TRDJsFRv-1" edge="1">
          <mxGeometry relative="1" as="geometry">
            <mxPoint x="440" y="110" as="targetPoint" />
          </mxGeometry>
        </mxCell>
        <mxCell id="rCU9mX7-NfS8TRDJsFRv-1" value="&lt;h1 style=&quot;margin-top: 0px;&quot;&gt;机器学习算法工程师&lt;/h1&gt;&lt;p&gt;岗位要求：XXXX&lt;br&gt;岗位职责：XXXX&lt;br&gt;&lt;br&gt;&lt;/p&gt;" style="text;html=1;whiteSpace=wrap;overflow=hidden;rounded=0;" parent="1" vertex="1">
          <mxGeometry x="70" y="70" width="240" height="80" as="geometry" />
        </mxCell>
        <mxCell id="rCU9mX7-NfS8TRDJsFRv-4" value="简历1" style="rounded=1;whiteSpace=wrap;html=1;" parent="1" vertex="1">
          <mxGeometry x="510" y="-70" width="220" height="60" as="geometry" />
        </mxCell>
        <mxCell id="rCU9mX7-NfS8TRDJsFRv-5" value="简历2" style="rounded=1;whiteSpace=wrap;html=1;" parent="1" vertex="1">
          <mxGeometry x="510" y="20" width="220" height="60" as="geometry" />
        </mxCell>
        <mxCell id="rCU9mX7-NfS8TRDJsFRv-6" value="简历3" style="rounded=1;whiteSpace=wrap;html=1;" parent="1" vertex="1">
          <mxGeometry x="510" y="110" width="220" height="60" as="geometry" />
        </mxCell>
        <mxCell id="rCU9mX7-NfS8TRDJsFRv-7" value="简历4" style="rounded=1;whiteSpace=wrap;html=1;" parent="1" vertex="1">
          <mxGeometry x="510" y="210" width="220" height="60" as="geometry" />
        </mxCell>
        <mxCell id="rCU9mX7-NfS8TRDJsFRv-8" value="人才库" style="swimlane;whiteSpace=wrap;html=1;" parent="1" vertex="1">
          <mxGeometry x="490" y="460" width="296" height="380" as="geometry">
            <mxRectangle x="460" y="460" width="80" height="30" as="alternateBounds" />
          </mxGeometry>
        </mxCell>
        <mxCell id="rCU9mX7-NfS8TRDJsFRv-12" value="" style="group" parent="rCU9mX7-NfS8TRDJsFRv-8" vertex="1" connectable="0">
          <mxGeometry x="40" y="40" width="220" height="60" as="geometry" />
        </mxCell>
        <mxCell id="rCU9mX7-NfS8TRDJsFRv-9" value="" style="rounded=1;whiteSpace=wrap;html=1;" parent="rCU9mX7-NfS8TRDJsFRv-12" vertex="1">
          <mxGeometry width="220" height="60" as="geometry" />
        </mxCell>
        <mxCell id="rCU9mX7-NfS8TRDJsFRv-10" value="标签1" style="text;html=1;strokeColor=#d6b656;fillColor=#fff2cc;align=center;verticalAlign=middle;whiteSpace=wrap;overflow=hidden;" parent="rCU9mX7-NfS8TRDJsFRv-12" vertex="1">
          <mxGeometry x="46" y="20" width="40" height="20" as="geometry" />
        </mxCell>
        <mxCell id="rCU9mX7-NfS8TRDJsFRv-11" value="标签x" style="text;html=1;strokeColor=#d6b656;fillColor=#fff2cc;align=center;verticalAlign=middle;whiteSpace=wrap;overflow=hidden;" parent="rCU9mX7-NfS8TRDJsFRv-12" vertex="1">
          <mxGeometry x="126" y="20" width="40" height="20" as="geometry" />
        </mxCell>
        <mxCell id="rCU9mX7-NfS8TRDJsFRv-17" value="" style="group" parent="rCU9mX7-NfS8TRDJsFRv-8" vertex="1" connectable="0">
          <mxGeometry x="40" y="125" width="220" height="60" as="geometry" />
        </mxCell>
        <mxCell id="rCU9mX7-NfS8TRDJsFRv-18" value="" style="rounded=1;whiteSpace=wrap;html=1;" parent="rCU9mX7-NfS8TRDJsFRv-17" vertex="1">
          <mxGeometry width="220" height="60" as="geometry" />
        </mxCell>
        <mxCell id="rCU9mX7-NfS8TRDJsFRv-19" value="标签1" style="text;html=1;strokeColor=#d6b656;fillColor=#fff2cc;align=center;verticalAlign=middle;whiteSpace=wrap;overflow=hidden;" parent="rCU9mX7-NfS8TRDJsFRv-17" vertex="1">
          <mxGeometry x="46" y="20" width="40" height="20" as="geometry" />
        </mxCell>
        <mxCell id="rCU9mX7-NfS8TRDJsFRv-20" value="标签x" style="text;html=1;strokeColor=#d6b656;fillColor=#fff2cc;align=center;verticalAlign=middle;whiteSpace=wrap;overflow=hidden;" parent="rCU9mX7-NfS8TRDJsFRv-17" vertex="1">
          <mxGeometry x="126" y="20" width="40" height="20" as="geometry" />
        </mxCell>
        <mxCell id="rCU9mX7-NfS8TRDJsFRv-21" value="" style="group" parent="rCU9mX7-NfS8TRDJsFRv-8" vertex="1" connectable="0">
          <mxGeometry x="40" y="220" width="220" height="60" as="geometry" />
        </mxCell>
        <mxCell id="rCU9mX7-NfS8TRDJsFRv-22" value="" style="rounded=1;whiteSpace=wrap;html=1;" parent="rCU9mX7-NfS8TRDJsFRv-21" vertex="1">
          <mxGeometry width="220" height="60" as="geometry" />
        </mxCell>
        <mxCell id="rCU9mX7-NfS8TRDJsFRv-23" value="标签1" style="text;html=1;strokeColor=#d6b656;fillColor=#fff2cc;align=center;verticalAlign=middle;whiteSpace=wrap;overflow=hidden;" parent="rCU9mX7-NfS8TRDJsFRv-21" vertex="1">
          <mxGeometry x="46" y="20" width="40" height="20" as="geometry" />
        </mxCell>
        <mxCell id="rCU9mX7-NfS8TRDJsFRv-24" value="标签x" style="text;html=1;strokeColor=#d6b656;fillColor=#fff2cc;align=center;verticalAlign=middle;whiteSpace=wrap;overflow=hidden;" parent="rCU9mX7-NfS8TRDJsFRv-21" vertex="1">
          <mxGeometry x="126" y="20" width="40" height="20" as="geometry" />
        </mxCell>
        <mxCell id="rCU9mX7-NfS8TRDJsFRv-25" value="" style="group" parent="rCU9mX7-NfS8TRDJsFRv-8" vertex="1" connectable="0">
          <mxGeometry x="40" y="300" width="220" height="60" as="geometry" />
        </mxCell>
        <mxCell id="rCU9mX7-NfS8TRDJsFRv-26" value="" style="rounded=1;whiteSpace=wrap;html=1;" parent="rCU9mX7-NfS8TRDJsFRv-25" vertex="1">
          <mxGeometry width="220" height="60" as="geometry" />
        </mxCell>
        <mxCell id="rCU9mX7-NfS8TRDJsFRv-27" value="标签1" style="text;html=1;strokeColor=#d6b656;fillColor=#fff2cc;align=center;verticalAlign=middle;whiteSpace=wrap;overflow=hidden;" parent="rCU9mX7-NfS8TRDJsFRv-25" vertex="1">
          <mxGeometry x="46" y="20" width="40" height="20" as="geometry" />
        </mxCell>
        <mxCell id="rCU9mX7-NfS8TRDJsFRv-28" value="标签x" style="text;html=1;strokeColor=#d6b656;fillColor=#fff2cc;align=center;verticalAlign=middle;whiteSpace=wrap;overflow=hidden;" parent="rCU9mX7-NfS8TRDJsFRv-25" vertex="1">
          <mxGeometry x="126" y="20" width="40" height="20" as="geometry" />
        </mxCell>
        <mxCell id="rCU9mX7-NfS8TRDJsFRv-29" value="&lt;font style=&quot;font-size: 24px;&quot;&gt;&lt;b&gt;目标&lt;/b&gt;&lt;/font&gt;" style="text;html=1;align=center;verticalAlign=middle;whiteSpace=wrap;rounded=0;" parent="1" vertex="1">
          <mxGeometry x="60" y="-140" width="60" height="30" as="geometry" />
        </mxCell>
        <mxCell id="rCU9mX7-NfS8TRDJsFRv-31" value="&lt;font style=&quot;font-size: 24px;&quot;&gt;&lt;b&gt;思路&lt;/b&gt;&lt;/font&gt;" style="text;html=1;align=center;verticalAlign=middle;whiteSpace=wrap;rounded=0;" parent="1" vertex="1">
          <mxGeometry x="60" y="370" width="60" height="30" as="geometry" />
        </mxCell>
        <mxCell id="rCU9mX7-NfS8TRDJsFRv-38" value="" style="edgeStyle=orthogonalEdgeStyle;rounded=0;orthogonalLoop=1;jettySize=auto;html=1;" parent="1" source="rCU9mX7-NfS8TRDJsFRv-33" target="rCU9mX7-NfS8TRDJsFRv-37" edge="1">
          <mxGeometry relative="1" as="geometry" />
        </mxCell>
        <mxCell id="rCU9mX7-NfS8TRDJsFRv-33" value="&lt;b&gt;&lt;font style=&quot;font-size: 18px;&quot;&gt;岗位职责&lt;/font&gt;&lt;/b&gt;" style="text;html=1;align=center;verticalAlign=middle;whiteSpace=wrap;rounded=0;" parent="1" vertex="1">
          <mxGeometry x="80" y="460" width="80" height="30" as="geometry" />
        </mxCell>
        <mxCell id="rCU9mX7-NfS8TRDJsFRv-39" value="进行关键信息的提取，将抽取出的信息映射到现有的标签体系中" style="text;html=1;align=center;verticalAlign=middle;whiteSpace=wrap;rounded=0;" parent="1" vertex="1">
          <mxGeometry x="130" y="480" width="190" height="90" as="geometry" />
        </mxCell>
        <mxCell id="rCU9mX7-NfS8TRDJsFRv-42" value="" style="shape=curlyBracket;whiteSpace=wrap;html=1;rounded=1;labelPosition=left;verticalLabelPosition=middle;align=right;verticalAlign=middle;" parent="1" vertex="1">
          <mxGeometry x="180" y="602.5" width="20" height="120" as="geometry" />
        </mxCell>
        <mxCell id="rCU9mX7-NfS8TRDJsFRv-43" value="" style="group" parent="1" vertex="1" connectable="0">
          <mxGeometry x="60" y="620" width="120" height="85" as="geometry" />
        </mxCell>
        <mxCell id="rCU9mX7-NfS8TRDJsFRv-37" value="&lt;span style=&quot;color: rgba(0, 0, 0, 0); font-family: monospace; font-size: 0px; text-align: start; text-wrap: nowrap;&quot;&gt;%3CmxGraphModel%3E%3Croot%3E%3CmxCell%20id%3D%220%22%2F%3E%3CmxCell%20id%3D%221%22%20parent%3D%220%22%2F%3E%3CmxCell%20id%3D%222%22%20value%3D%22%E6%A0%87%E7%AD%BE1%22%20style%3D%22text%3Bhtml%3D1%3BstrokeColor%3D%23d6b656%3BfillColor%3D%23fff2cc%3Balign%3Dcenter%3BverticalAlign%3Dmiddle%3BwhiteSpace%3Dwrap%3Boverflow%3Dhidden%3B%22%20vertex%3D%221%22%20parent%3D%221%22%3E%3CmxGeometry%20x%3D%22546%22%20y%3D%22520%22%20width%3D%2240%22%20height%3D%2220%22%20as%3D%22geometry%22%2F%3E%3C%2FmxCell%3E%3C%2Froot%3E%3C%2FmxGraphModel%3E&lt;/span&gt;" style="whiteSpace=wrap;html=1;" parent="rCU9mX7-NfS8TRDJsFRv-43" vertex="1">
          <mxGeometry width="120" height="85" as="geometry" />
        </mxCell>
        <mxCell id="rCU9mX7-NfS8TRDJsFRv-40" value="电商经验" style="text;html=1;strokeColor=#d6b656;fillColor=#fff2cc;align=center;verticalAlign=middle;whiteSpace=wrap;overflow=hidden;" parent="rCU9mX7-NfS8TRDJsFRv-43" vertex="1">
          <mxGeometry x="5" y="32.5" width="50" height="20" as="geometry" />
        </mxCell>
        <mxCell id="rCU9mX7-NfS8TRDJsFRv-41" value="应届生" style="text;html=1;strokeColor=#d6b656;fillColor=#fff2cc;align=center;verticalAlign=middle;whiteSpace=wrap;overflow=hidden;" parent="rCU9mX7-NfS8TRDJsFRv-43" vertex="1">
          <mxGeometry x="70" y="32.5" width="40" height="20" as="geometry" />
        </mxCell>
        <mxCell id="rCU9mX7-NfS8TRDJsFRv-47" value="" style="edgeStyle=orthogonalEdgeStyle;rounded=0;orthogonalLoop=1;jettySize=auto;html=1;" parent="1" source="rCU9mX7-NfS8TRDJsFRv-44" target="rCU9mX7-NfS8TRDJsFRv-46" edge="1">
          <mxGeometry relative="1" as="geometry" />
        </mxCell>
        <mxCell id="rCU9mX7-NfS8TRDJsFRv-44" value="&lt;b&gt;硬性条件&lt;/b&gt;" style="text;html=1;align=center;verticalAlign=middle;whiteSpace=wrap;rounded=0;" parent="1" vertex="1">
          <mxGeometry x="210" y="610" width="60" height="30" as="geometry" />
        </mxCell>
        <mxCell id="rCU9mX7-NfS8TRDJsFRv-51" value="" style="edgeStyle=orthogonalEdgeStyle;rounded=0;orthogonalLoop=1;jettySize=auto;html=1;" parent="1" source="rCU9mX7-NfS8TRDJsFRv-45" target="rCU9mX7-NfS8TRDJsFRv-50" edge="1">
          <mxGeometry relative="1" as="geometry" />
        </mxCell>
        <mxCell id="rCU9mX7-NfS8TRDJsFRv-45" value="&lt;b&gt;核心技能&lt;/b&gt;" style="text;html=1;align=center;verticalAlign=middle;whiteSpace=wrap;rounded=0;" parent="1" vertex="1">
          <mxGeometry x="210" y="675" width="60" height="30" as="geometry" />
        </mxCell>
        <mxCell id="rCU9mX7-NfS8TRDJsFRv-55" value="" style="edgeStyle=orthogonalEdgeStyle;rounded=0;orthogonalLoop=1;jettySize=auto;html=1;" parent="1" source="rCU9mX7-NfS8TRDJsFRv-46" edge="1">
          <mxGeometry relative="1" as="geometry">
            <mxPoint x="490" y="640" as="targetPoint" />
            <Array as="points">
              <mxPoint x="455" y="625" />
              <mxPoint x="455" y="641" />
            </Array>
          </mxGeometry>
        </mxCell>
        <mxCell id="rCU9mX7-NfS8TRDJsFRv-46" value="过滤" style="rhombus;whiteSpace=wrap;html=1;" parent="1" vertex="1">
          <mxGeometry x="340" y="585" width="80" height="80" as="geometry" />
        </mxCell>
        <mxCell id="rCU9mX7-NfS8TRDJsFRv-53" value="" style="edgeStyle=orthogonalEdgeStyle;rounded=0;orthogonalLoop=1;jettySize=auto;html=1;" parent="1" source="rCU9mX7-NfS8TRDJsFRv-50" target="rCU9mX7-NfS8TRDJsFRv-52" edge="1">
          <mxGeometry relative="1" as="geometry" />
        </mxCell>
        <mxCell id="rCU9mX7-NfS8TRDJsFRv-50" value="标签权重配置表（自定义）" style="whiteSpace=wrap;html=1;" parent="1" vertex="1">
          <mxGeometry x="155" y="770" width="170" height="60" as="geometry" />
        </mxCell>
        <mxCell id="rCU9mX7-NfS8TRDJsFRv-52" value="计算标签权重" style="whiteSpace=wrap;html=1;" parent="1" vertex="1">
          <mxGeometry x="180" y="850" width="120" height="60" as="geometry" />
        </mxCell>
        <mxCell id="rCU9mX7-NfS8TRDJsFRv-61" value="" style="shape=image;html=1;verticalAlign=top;verticalLabelPosition=bottom;labelBackgroundColor=#ffffff;imageAspect=0;aspect=fixed;image=https://cdn2.iconfinder.com/data/icons/boxicons-regular-vol-3/24/bx-sort-down-128.png" parent="1" vertex="1">
          <mxGeometry x="400" y="950" width="128" height="128" as="geometry" />
        </mxCell>
        <mxCell id="rCU9mX7-NfS8TRDJsFRv-62" value="" style="endArrow=classic;html=1;rounded=0;exitX=0.5;exitY=1;exitDx=0;exitDy=0;entryX=0.5;entryY=0;entryDx=0;entryDy=0;" parent="1" source="rCU9mX7-NfS8TRDJsFRv-52" target="rCU9mX7-NfS8TRDJsFRv-61" edge="1">
          <mxGeometry width="50" height="50" relative="1" as="geometry">
            <mxPoint x="410" y="980" as="sourcePoint" />
            <mxPoint x="460" y="930" as="targetPoint" />
          </mxGeometry>
        </mxCell>
        <mxCell id="rCU9mX7-NfS8TRDJsFRv-63" value="" style="endArrow=classic;html=1;rounded=0;exitX=0.5;exitY=1;exitDx=0;exitDy=0;entryX=0.5;entryY=0;entryDx=0;entryDy=0;" parent="1" source="rCU9mX7-NfS8TRDJsFRv-8" target="rCU9mX7-NfS8TRDJsFRv-61" edge="1">
          <mxGeometry width="50" height="50" relative="1" as="geometry">
            <mxPoint x="620" y="970" as="sourcePoint" />
            <mxPoint x="670" y="920" as="targetPoint" />
          </mxGeometry>
        </mxCell>
        <mxCell id="rCU9mX7-NfS8TRDJsFRv-64" value="&lt;span style=&quot;font-size: 24px;&quot;&gt;&lt;b&gt;实现&lt;/b&gt;&lt;/span&gt;" style="text;html=1;align=center;verticalAlign=middle;whiteSpace=wrap;rounded=0;" parent="1" vertex="1">
          <mxGeometry x="60" y="1169" width="60" height="30" as="geometry" />
        </mxCell>
        <mxCell id="rCU9mX7-NfS8TRDJsFRv-68" value="" style="edgeStyle=orthogonalEdgeStyle;rounded=0;orthogonalLoop=1;jettySize=auto;html=1;" parent="1" source="rCU9mX7-NfS8TRDJsFRv-66" target="rCU9mX7-NfS8TRDJsFRv-67" edge="1">
          <mxGeometry relative="1" as="geometry" />
        </mxCell>
        <mxCell id="rCU9mX7-NfS8TRDJsFRv-66" value="&lt;font style=&quot;font-size: 18px;&quot;&gt;1.关键信息提取&lt;/font&gt;" style="text;html=1;align=center;verticalAlign=middle;whiteSpace=wrap;rounded=0;" parent="1" vertex="1">
          <mxGeometry x="70" y="1280" width="160" height="40" as="geometry" />
        </mxCell>
        <mxCell id="rCU9mX7-NfS8TRDJsFRv-67" value="可以利用大模型来进行提取分析（训练微调）" style="whiteSpace=wrap;html=1;" parent="1" vertex="1">
          <mxGeometry x="330" y="1270" width="120" height="60" as="geometry" />
        </mxCell>
        <mxCell id="rCU9mX7-NfS8TRDJsFRv-71" value="" style="edgeStyle=orthogonalEdgeStyle;rounded=0;orthogonalLoop=1;jettySize=auto;html=1;" parent="1" source="rCU9mX7-NfS8TRDJsFRv-69" target="rCU9mX7-NfS8TRDJsFRv-70" edge="1">
          <mxGeometry relative="1" as="geometry" />
        </mxCell>
        <mxCell id="rCU9mX7-NfS8TRDJsFRv-69" value="&lt;font style=&quot;font-size: 18px;&quot;&gt;2.硬性条件过滤&lt;/font&gt;" style="text;html=1;align=center;verticalAlign=middle;whiteSpace=wrap;rounded=0;" parent="1" vertex="1">
          <mxGeometry x="70" y="1370" width="160" height="40" as="geometry" />
        </mxCell>
        <mxCell id="rCU9mX7-NfS8TRDJsFRv-70" value="满足为1，不满足为0&lt;br&gt;计算权重时进行乘法" style="whiteSpace=wrap;html=1;" parent="1" vertex="1">
          <mxGeometry x="330" y="1360" width="120" height="60" as="geometry" />
        </mxCell>
        <mxCell id="rCU9mX7-NfS8TRDJsFRv-74" value="" style="edgeStyle=orthogonalEdgeStyle;rounded=0;orthogonalLoop=1;jettySize=auto;html=1;" parent="1" source="rCU9mX7-NfS8TRDJsFRv-72" target="rCU9mX7-NfS8TRDJsFRv-73" edge="1">
          <mxGeometry relative="1" as="geometry" />
        </mxCell>
        <mxCell id="rCU9mX7-NfS8TRDJsFRv-72" value="&lt;font style=&quot;font-size: 18px;&quot;&gt;3.基础匹配&lt;br&gt;Must Have&lt;/font&gt;" style="text;html=1;align=center;verticalAlign=middle;whiteSpace=wrap;rounded=0;" parent="1" vertex="1">
          <mxGeometry x="70" y="1460" width="160" height="40" as="geometry" />
        </mxCell>
        <mxCell id="rCU9mX7-NfS8TRDJsFRv-73" value="同理还是权重计算分数" style="whiteSpace=wrap;html=1;" parent="1" vertex="1">
          <mxGeometry x="330" y="1450" width="120" height="60" as="geometry" />
        </mxCell>
        <mxCell id="rCU9mX7-NfS8TRDJsFRv-79" value="" style="edgeStyle=orthogonalEdgeStyle;rounded=0;orthogonalLoop=1;jettySize=auto;html=1;" parent="1" source="rCU9mX7-NfS8TRDJsFRv-75" target="rCU9mX7-NfS8TRDJsFRv-78" edge="1">
          <mxGeometry relative="1" as="geometry" />
        </mxCell>
        <mxCell id="rCU9mX7-NfS8TRDJsFRv-75" value="" style="shape=curlyBracket;whiteSpace=wrap;html=1;rounded=1;flipH=1;labelPosition=right;verticalLabelPosition=middle;align=left;verticalAlign=middle;" parent="1" vertex="1">
          <mxGeometry x="475" y="1360" width="20" height="150" as="geometry" />
        </mxCell>
        <mxCell id="rCU9mX7-NfS8TRDJsFRv-78" value="扫描人才库中的简历，进行打分，打分完进行排序，推荐" style="whiteSpace=wrap;html=1;align=left;rounded=1;" parent="1" vertex="1">
          <mxGeometry x="525" y="1405" width="120" height="60" as="geometry" />
        </mxCell>
        <mxCell id="rCU9mX7-NfS8TRDJsFRv-80" value="（感觉效率问题很重要啊）" style="text;html=1;align=center;verticalAlign=middle;whiteSpace=wrap;rounded=0;" parent="1" vertex="1">
          <mxGeometry x="630" y="1415" width="175" height="40" as="geometry" />
        </mxCell>
        <mxCell id="KNSwncKqrDuZkiPNyzF8-1" value="" style="rounded=0;whiteSpace=wrap;html=1;" parent="1" vertex="1">
          <mxGeometry x="1241" y="460" width="910" height="680" as="geometry" />
        </mxCell>
        <mxCell id="KNSwncKqrDuZkiPNyzF8-2" value="人才库" style="swimlane;whiteSpace=wrap;html=1;" parent="1" vertex="1">
          <mxGeometry x="1701" y="490" width="296" height="380" as="geometry">
            <mxRectangle x="460" y="460" width="80" height="30" as="alternateBounds" />
          </mxGeometry>
        </mxCell>
        <mxCell id="KNSwncKqrDuZkiPNyzF8-3" value="" style="group" parent="KNSwncKqrDuZkiPNyzF8-2" vertex="1" connectable="0">
          <mxGeometry x="40" y="40" width="220" height="60" as="geometry" />
        </mxCell>
        <mxCell id="KNSwncKqrDuZkiPNyzF8-4" value="" style="rounded=1;whiteSpace=wrap;html=1;" parent="KNSwncKqrDuZkiPNyzF8-3" vertex="1">
          <mxGeometry width="220" height="60" as="geometry" />
        </mxCell>
        <mxCell id="KNSwncKqrDuZkiPNyzF8-5" value="标签1" style="text;html=1;strokeColor=#d6b656;fillColor=#fff2cc;align=center;verticalAlign=middle;whiteSpace=wrap;overflow=hidden;" parent="KNSwncKqrDuZkiPNyzF8-3" vertex="1">
          <mxGeometry x="46" y="20" width="40" height="20" as="geometry" />
        </mxCell>
        <mxCell id="KNSwncKqrDuZkiPNyzF8-6" value="标签x" style="text;html=1;strokeColor=#d6b656;fillColor=#fff2cc;align=center;verticalAlign=middle;whiteSpace=wrap;overflow=hidden;" parent="KNSwncKqrDuZkiPNyzF8-3" vertex="1">
          <mxGeometry x="126" y="20" width="40" height="20" as="geometry" />
        </mxCell>
        <mxCell id="KNSwncKqrDuZkiPNyzF8-7" value="" style="group" parent="KNSwncKqrDuZkiPNyzF8-2" vertex="1" connectable="0">
          <mxGeometry x="40" y="125" width="220" height="60" as="geometry" />
        </mxCell>
        <mxCell id="KNSwncKqrDuZkiPNyzF8-8" value="" style="rounded=1;whiteSpace=wrap;html=1;" parent="KNSwncKqrDuZkiPNyzF8-7" vertex="1">
          <mxGeometry width="220" height="60" as="geometry" />
        </mxCell>
        <mxCell id="KNSwncKqrDuZkiPNyzF8-9" value="标签1" style="text;html=1;strokeColor=#d6b656;fillColor=#fff2cc;align=center;verticalAlign=middle;whiteSpace=wrap;overflow=hidden;" parent="KNSwncKqrDuZkiPNyzF8-7" vertex="1">
          <mxGeometry x="46" y="20" width="40" height="20" as="geometry" />
        </mxCell>
        <mxCell id="KNSwncKqrDuZkiPNyzF8-10" value="标签x" style="text;html=1;strokeColor=#d6b656;fillColor=#fff2cc;align=center;verticalAlign=middle;whiteSpace=wrap;overflow=hidden;" parent="KNSwncKqrDuZkiPNyzF8-7" vertex="1">
          <mxGeometry x="126" y="20" width="40" height="20" as="geometry" />
        </mxCell>
        <mxCell id="KNSwncKqrDuZkiPNyzF8-11" value="" style="group" parent="KNSwncKqrDuZkiPNyzF8-2" vertex="1" connectable="0">
          <mxGeometry x="40" y="220" width="220" height="60" as="geometry" />
        </mxCell>
        <mxCell id="KNSwncKqrDuZkiPNyzF8-12" value="" style="rounded=1;whiteSpace=wrap;html=1;" parent="KNSwncKqrDuZkiPNyzF8-11" vertex="1">
          <mxGeometry width="220" height="60" as="geometry" />
        </mxCell>
        <mxCell id="KNSwncKqrDuZkiPNyzF8-13" value="标签1" style="text;html=1;strokeColor=#d6b656;fillColor=#fff2cc;align=center;verticalAlign=middle;whiteSpace=wrap;overflow=hidden;" parent="KNSwncKqrDuZkiPNyzF8-11" vertex="1">
          <mxGeometry x="46" y="20" width="40" height="20" as="geometry" />
        </mxCell>
        <mxCell id="KNSwncKqrDuZkiPNyzF8-14" value="标签x" style="text;html=1;strokeColor=#d6b656;fillColor=#fff2cc;align=center;verticalAlign=middle;whiteSpace=wrap;overflow=hidden;" parent="KNSwncKqrDuZkiPNyzF8-11" vertex="1">
          <mxGeometry x="126" y="20" width="40" height="20" as="geometry" />
        </mxCell>
        <mxCell id="KNSwncKqrDuZkiPNyzF8-15" value="" style="group" parent="KNSwncKqrDuZkiPNyzF8-2" vertex="1" connectable="0">
          <mxGeometry x="40" y="300" width="220" height="60" as="geometry" />
        </mxCell>
        <mxCell id="KNSwncKqrDuZkiPNyzF8-16" value="" style="rounded=1;whiteSpace=wrap;html=1;" parent="KNSwncKqrDuZkiPNyzF8-15" vertex="1">
          <mxGeometry width="220" height="60" as="geometry" />
        </mxCell>
        <mxCell id="KNSwncKqrDuZkiPNyzF8-17" value="标签1" style="text;html=1;strokeColor=#d6b656;fillColor=#fff2cc;align=center;verticalAlign=middle;whiteSpace=wrap;overflow=hidden;" parent="KNSwncKqrDuZkiPNyzF8-15" vertex="1">
          <mxGeometry x="46" y="20" width="40" height="20" as="geometry" />
        </mxCell>
        <mxCell id="KNSwncKqrDuZkiPNyzF8-18" value="标签x" style="text;html=1;strokeColor=#d6b656;fillColor=#fff2cc;align=center;verticalAlign=middle;whiteSpace=wrap;overflow=hidden;" parent="KNSwncKqrDuZkiPNyzF8-15" vertex="1">
          <mxGeometry x="126" y="20" width="40" height="20" as="geometry" />
        </mxCell>
        <mxCell id="KNSwncKqrDuZkiPNyzF8-19" value="&lt;font style=&quot;font-size: 24px;&quot;&gt;&lt;b&gt;思路_优化1&lt;/b&gt;&lt;/font&gt;" style="text;html=1;align=center;verticalAlign=middle;whiteSpace=wrap;rounded=0;" parent="1" vertex="1">
          <mxGeometry x="1271" y="400" width="149" height="30" as="geometry" />
        </mxCell>
        <mxCell id="KNSwncKqrDuZkiPNyzF8-20" value="" style="edgeStyle=orthogonalEdgeStyle;rounded=0;orthogonalLoop=1;jettySize=auto;html=1;" parent="1" source="KNSwncKqrDuZkiPNyzF8-21" target="KNSwncKqrDuZkiPNyzF8-25" edge="1">
          <mxGeometry relative="1" as="geometry" />
        </mxCell>
        <mxCell id="KNSwncKqrDuZkiPNyzF8-21" value="&lt;b&gt;&lt;font style=&quot;font-size: 18px;&quot;&gt;岗位职责&lt;/font&gt;&lt;/b&gt;" style="text;html=1;align=center;verticalAlign=middle;whiteSpace=wrap;rounded=0;" parent="1" vertex="1">
          <mxGeometry x="1291" y="490" width="80" height="30" as="geometry" />
        </mxCell>
        <mxCell id="KNSwncKqrDuZkiPNyzF8-22" value="进行关键信息的提取，将抽取出的信息映射到现有的标签体系中" style="text;html=1;align=center;verticalAlign=middle;whiteSpace=wrap;rounded=0;" parent="1" vertex="1">
          <mxGeometry x="1341" y="510" width="190" height="90" as="geometry" />
        </mxCell>
        <mxCell id="KNSwncKqrDuZkiPNyzF8-23" value="" style="shape=curlyBracket;whiteSpace=wrap;html=1;rounded=1;labelPosition=left;verticalLabelPosition=middle;align=right;verticalAlign=middle;" parent="1" vertex="1">
          <mxGeometry x="1391" y="632.5" width="20" height="120" as="geometry" />
        </mxCell>
        <mxCell id="KNSwncKqrDuZkiPNyzF8-24" value="" style="group" parent="1" vertex="1" connectable="0">
          <mxGeometry x="1271" y="650" width="120" height="85" as="geometry" />
        </mxCell>
        <mxCell id="KNSwncKqrDuZkiPNyzF8-25" value="&lt;span style=&quot;color: rgba(0, 0, 0, 0); font-family: monospace; font-size: 0px; text-align: start; text-wrap: nowrap;&quot;&gt;%3CmxGraphModel%3E%3Croot%3E%3CmxCell%20id%3D%220%22%2F%3E%3CmxCell%20id%3D%221%22%20parent%3D%220%22%2F%3E%3CmxCell%20id%3D%222%22%20value%3D%22%E6%A0%87%E7%AD%BE1%22%20style%3D%22text%3Bhtml%3D1%3BstrokeColor%3D%23d6b656%3BfillColor%3D%23fff2cc%3Balign%3Dcenter%3BverticalAlign%3Dmiddle%3BwhiteSpace%3Dwrap%3Boverflow%3Dhidden%3B%22%20vertex%3D%221%22%20parent%3D%221%22%3E%3CmxGeometry%20x%3D%22546%22%20y%3D%22520%22%20width%3D%2240%22%20height%3D%2220%22%20as%3D%22geometry%22%2F%3E%3C%2FmxCell%3E%3C%2Froot%3E%3C%2FmxGraphModel%3E&lt;/span&gt;" style="whiteSpace=wrap;html=1;" parent="KNSwncKqrDuZkiPNyzF8-24" vertex="1">
          <mxGeometry width="120" height="85" as="geometry" />
        </mxCell>
        <mxCell id="KNSwncKqrDuZkiPNyzF8-26" value="电商经验" style="text;html=1;strokeColor=#d6b656;fillColor=#fff2cc;align=center;verticalAlign=middle;whiteSpace=wrap;overflow=hidden;" parent="KNSwncKqrDuZkiPNyzF8-24" vertex="1">
          <mxGeometry x="5" y="32.5" width="50" height="20" as="geometry" />
        </mxCell>
        <mxCell id="KNSwncKqrDuZkiPNyzF8-27" value="应届生" style="text;html=1;strokeColor=#d6b656;fillColor=#fff2cc;align=center;verticalAlign=middle;whiteSpace=wrap;overflow=hidden;" parent="KNSwncKqrDuZkiPNyzF8-24" vertex="1">
          <mxGeometry x="70" y="32.5" width="40" height="20" as="geometry" />
        </mxCell>
        <mxCell id="KNSwncKqrDuZkiPNyzF8-29" value="&lt;b&gt;硬性条件&lt;/b&gt;" style="text;html=1;align=center;verticalAlign=middle;whiteSpace=wrap;rounded=0;" parent="1" vertex="1">
          <mxGeometry x="1421" y="640" width="60" height="30" as="geometry" />
        </mxCell>
        <mxCell id="KNSwncKqrDuZkiPNyzF8-30" value="" style="edgeStyle=orthogonalEdgeStyle;rounded=0;orthogonalLoop=1;jettySize=auto;html=1;" parent="1" source="KNSwncKqrDuZkiPNyzF8-31" target="KNSwncKqrDuZkiPNyzF8-35" edge="1">
          <mxGeometry relative="1" as="geometry" />
        </mxCell>
        <mxCell id="KNSwncKqrDuZkiPNyzF8-31" value="&lt;b&gt;核心技能&lt;/b&gt;" style="text;html=1;align=center;verticalAlign=middle;whiteSpace=wrap;rounded=0;" parent="1" vertex="1">
          <mxGeometry x="1421" y="705" width="60" height="30" as="geometry" />
        </mxCell>
        <mxCell id="KNSwncKqrDuZkiPNyzF8-35" value="基础匹配(统计JD和简历标签重叠的数量来进行排序)" style="whiteSpace=wrap;html=1;" parent="1" vertex="1">
          <mxGeometry x="1366" y="800" width="170" height="60" as="geometry" />
        </mxCell>
        <mxCell id="KNSwncKqrDuZkiPNyzF8-37" value="" style="shape=image;html=1;verticalAlign=top;verticalLabelPosition=bottom;labelBackgroundColor=#ffffff;imageAspect=0;aspect=fixed;image=https://cdn2.iconfinder.com/data/icons/boxicons-regular-vol-3/24/bx-sort-down-128.png" parent="1" vertex="1">
          <mxGeometry x="1611" y="980" width="128" height="128" as="geometry" />
        </mxCell>
        <mxCell id="KNSwncKqrDuZkiPNyzF8-39" value="" style="endArrow=classic;html=1;rounded=0;exitX=0.5;exitY=1;exitDx=0;exitDy=0;entryX=0.5;entryY=0;entryDx=0;entryDy=0;" parent="1" source="KNSwncKqrDuZkiPNyzF8-2" target="KNSwncKqrDuZkiPNyzF8-37" edge="1">
          <mxGeometry width="50" height="50" relative="1" as="geometry">
            <mxPoint x="1831" y="1000" as="sourcePoint" />
            <mxPoint x="1881" y="950" as="targetPoint" />
          </mxGeometry>
        </mxCell>
        <mxCell id="KNSwncKqrDuZkiPNyzF8-41" value="覆盖(可以)所有标签" style="shape=step;perimeter=stepPerimeter;whiteSpace=wrap;html=1;fixedSize=1;" parent="1" vertex="1">
          <mxGeometry x="1500" y="612.5" width="170" height="25" as="geometry" />
        </mxCell>
        <mxCell id="KNSwncKqrDuZkiPNyzF8-42" value="SQL查询作为备选方案" style="shape=step;perimeter=stepPerimeter;whiteSpace=wrap;html=1;fixedSize=1;" parent="1" vertex="1">
          <mxGeometry x="1504" y="665" width="166" height="25" as="geometry" />
        </mxCell>
        <mxCell id="KNSwncKqrDuZkiPNyzF8-43" value="" style="endArrow=classic;html=1;rounded=0;" parent="1" source="KNSwncKqrDuZkiPNyzF8-29" edge="1">
          <mxGeometry width="50" height="50" relative="1" as="geometry">
            <mxPoint x="1670" y="680" as="sourcePoint" />
            <mxPoint x="1700" y="655" as="targetPoint" />
          </mxGeometry>
        </mxCell>
        <mxCell id="KNSwncKqrDuZkiPNyzF8-44" value="" style="endArrow=classic;html=1;rounded=0;exitX=0.5;exitY=1;exitDx=0;exitDy=0;entryX=0.25;entryY=0;entryDx=0;entryDy=0;" parent="1" source="KNSwncKqrDuZkiPNyzF8-35" target="KNSwncKqrDuZkiPNyzF8-37" edge="1">
          <mxGeometry width="50" height="50" relative="1" as="geometry">
            <mxPoint x="1540" y="1000" as="sourcePoint" />
            <mxPoint x="1590" y="950" as="targetPoint" />
          </mxGeometry>
        </mxCell>
        <mxCell id="KNSwncKqrDuZkiPNyzF8-46" value="保留权重分配的功能，更加易用。领英招聘系统有一个功能是：HR在发布职位的时，可勾选Must Have" style="shape=callout;whiteSpace=wrap;html=1;perimeter=calloutPerimeter;" parent="1" vertex="1">
          <mxGeometry x="1271" y="940" width="189" height="120" as="geometry" />
        </mxCell>
        <mxCell id="KNSwncKqrDuZkiPNyzF8-47" value="" style="endArrow=none;dashed=1;html=1;rounded=0;exitX=0.5;exitY=0;exitDx=0;exitDy=0;exitPerimeter=0;" parent="1" source="KNSwncKqrDuZkiPNyzF8-46" target="KNSwncKqrDuZkiPNyzF8-35" edge="1">
          <mxGeometry width="50" height="50" relative="1" as="geometry">
            <mxPoint x="1660" y="980" as="sourcePoint" />
            <mxPoint x="1710" y="930" as="targetPoint" />
          </mxGeometry>
        </mxCell>
        <mxCell id="q82wBXD-_0V-6gVfcb_9-1" value="&lt;font style=&quot;font-size: 24px;&quot;&gt;&lt;b&gt;权重计算&lt;/b&gt;&lt;/font&gt;" style="text;html=1;align=center;verticalAlign=middle;whiteSpace=wrap;rounded=0;" vertex="1" parent="1">
          <mxGeometry x="1272" y="1230" width="149" height="30" as="geometry" />
        </mxCell>
        <mxCell id="q82wBXD-_0V-6gVfcb_9-3" value="&lt;font style=&quot;font-size: 18px;&quot;&gt;&lt;b&gt;目标：&lt;br&gt;原评分系统仅依赖标签数量，无法区分重要性差异。例如，“5年Java经验”可能比“团队协作”更重要。通过权重分配，能更精准反映岗位需求，提升筛选效率。&lt;/b&gt;&lt;/font&gt;" style="text;html=1;align=left;verticalAlign=middle;whiteSpace=wrap;rounded=0;" vertex="1" parent="1">
          <mxGeometry x="1271" y="1300" width="639" height="120" as="geometry" />
        </mxCell>
        <mxCell id="q82wBXD-_0V-6gVfcb_9-4" value="" style="swimlane;startSize=20;horizontal=0;childLayout=treeLayout;horizontalTree=1;sortEdges=1;resizable=0;containerType=tree;fontSize=12;" vertex="1" parent="1">
          <mxGeometry x="1281" y="1440" width="469" height="218" as="geometry" />
        </mxCell>
        <mxCell id="q82wBXD-_0V-6gVfcb_9-5" value="权重计算" style="whiteSpace=wrap;html=1;" vertex="1" parent="q82wBXD-_0V-6gVfcb_9-4">
          <mxGeometry x="40" y="92" width="100" height="40" as="geometry" />
        </mxCell>
        <mxCell id="q82wBXD-_0V-6gVfcb_9-6" value="静态权重" style="whiteSpace=wrap;html=1;" vertex="1" parent="q82wBXD-_0V-6gVfcb_9-4">
          <mxGeometry x="190" y="52" width="100" height="40" as="geometry" />
        </mxCell>
        <mxCell id="q82wBXD-_0V-6gVfcb_9-7" value="" style="edgeStyle=elbowEdgeStyle;elbow=horizontal;html=1;rounded=1;curved=0;sourcePerimeterSpacing=0;targetPerimeterSpacing=0;startSize=6;endSize=6;" edge="1" parent="q82wBXD-_0V-6gVfcb_9-4" source="q82wBXD-_0V-6gVfcb_9-5" target="q82wBXD-_0V-6gVfcb_9-6">
          <mxGeometry relative="1" as="geometry" />
        </mxCell>
        <mxCell id="q82wBXD-_0V-6gVfcb_9-8" value="动态权重" style="whiteSpace=wrap;html=1;" vertex="1" parent="q82wBXD-_0V-6gVfcb_9-4">
          <mxGeometry x="190" y="132" width="100" height="40" as="geometry" />
        </mxCell>
        <mxCell id="q82wBXD-_0V-6gVfcb_9-9" value="" style="edgeStyle=elbowEdgeStyle;elbow=horizontal;html=1;rounded=1;curved=0;sourcePerimeterSpacing=0;targetPerimeterSpacing=0;startSize=6;endSize=6;" edge="1" parent="q82wBXD-_0V-6gVfcb_9-4" source="q82wBXD-_0V-6gVfcb_9-5" target="q82wBXD-_0V-6gVfcb_9-8">
          <mxGeometry relative="1" as="geometry" />
        </mxCell>
        <mxCell id="q82wBXD-_0V-6gVfcb_9-16" value="特点" style="swimlane;fontStyle=0;childLayout=stackLayout;horizontal=1;startSize=26;fillColor=none;horizontalStack=0;resizeParent=1;resizeParentMax=0;resizeLast=0;collapsible=1;marginBottom=0;html=1;" vertex="1" parent="q82wBXD-_0V-6gVfcb_9-4">
          <mxGeometry x="299" y="20" width="150" height="78" as="geometry" />
        </mxCell>
        <mxCell id="q82wBXD-_0V-6gVfcb_9-17" value="简洁[给预设标签分配权重]" style="text;strokeColor=none;fillColor=none;align=left;verticalAlign=top;spacingLeft=4;spacingRight=4;overflow=hidden;rotatable=0;points=[[0,0.5],[1,0.5]];portConstraint=eastwest;whiteSpace=wrap;html=1;" vertex="1" parent="q82wBXD-_0V-6gVfcb_9-16">
          <mxGeometry y="26" width="150" height="26" as="geometry" />
        </mxCell>
        <mxCell id="q82wBXD-_0V-6gVfcb_9-18" value="效果[不同岗位对同一标签]" style="text;strokeColor=none;fillColor=none;align=left;verticalAlign=top;spacingLeft=4;spacingRight=4;overflow=hidden;rotatable=0;points=[[0,0.5],[1,0.5]];portConstraint=eastwest;whiteSpace=wrap;html=1;" vertex="1" parent="q82wBXD-_0V-6gVfcb_9-16">
          <mxGeometry y="52" width="150" height="26" as="geometry" />
        </mxCell>
        <mxCell id="q82wBXD-_0V-6gVfcb_9-21" value="特点" style="swimlane;fontStyle=0;childLayout=stackLayout;horizontal=1;startSize=26;fillColor=none;horizontalStack=0;resizeParent=1;resizeParentMax=0;resizeLast=0;collapsible=1;marginBottom=0;html=1;" vertex="1" parent="q82wBXD-_0V-6gVfcb_9-4">
          <mxGeometry x="299" y="120" width="140" height="78" as="geometry">
            <mxRectangle x="299" y="120" width="60" height="30" as="alternateBounds" />
          </mxGeometry>
        </mxCell>
        <mxCell id="q82wBXD-_0V-6gVfcb_9-22" value="效果优于静态方法" style="text;strokeColor=none;fillColor=none;align=left;verticalAlign=top;spacingLeft=4;spacingRight=4;overflow=hidden;rotatable=0;points=[[0,0.5],[1,0.5]];portConstraint=eastwest;whiteSpace=wrap;html=1;" vertex="1" parent="q82wBXD-_0V-6gVfcb_9-21">
          <mxGeometry y="26" width="140" height="26" as="geometry" />
        </mxCell>
        <mxCell id="q82wBXD-_0V-6gVfcb_9-23" value="复杂度高些" style="text;strokeColor=none;fillColor=none;align=left;verticalAlign=top;spacingLeft=4;spacingRight=4;overflow=hidden;rotatable=0;points=[[0,0.5],[1,0.5]];portConstraint=eastwest;whiteSpace=wrap;html=1;" vertex="1" parent="q82wBXD-_0V-6gVfcb_9-21">
          <mxGeometry y="52" width="140" height="26" as="geometry" />
        </mxCell>
        <mxCell id="q82wBXD-_0V-6gVfcb_9-25" value="" style="shape=singleArrow;direction=south;whiteSpace=wrap;html=1;" vertex="1" parent="1">
          <mxGeometry x="1531" y="1630" width="60" height="100" as="geometry" />
        </mxCell>
        <mxCell id="q82wBXD-_0V-6gVfcb_9-44" value="" style="edgeStyle=orthogonalEdgeStyle;rounded=0;orthogonalLoop=1;jettySize=auto;html=1;" edge="1" parent="1" source="q82wBXD-_0V-6gVfcb_9-39" target="q82wBXD-_0V-6gVfcb_9-43">
          <mxGeometry relative="1" as="geometry" />
        </mxCell>
        <mxCell id="q82wBXD-_0V-6gVfcb_9-39" value="&lt;b&gt;人工标识&lt;/b&gt;" style="shape=process;whiteSpace=wrap;html=1;backgroundOutline=1;" vertex="1" parent="1">
          <mxGeometry x="1411" y="1740" width="120" height="60" as="geometry" />
        </mxCell>
        <mxCell id="q82wBXD-_0V-6gVfcb_9-46" value="" style="edgeStyle=orthogonalEdgeStyle;rounded=0;orthogonalLoop=1;jettySize=auto;html=1;" edge="1" parent="1" source="q82wBXD-_0V-6gVfcb_9-40" target="q82wBXD-_0V-6gVfcb_9-45">
          <mxGeometry relative="1" as="geometry" />
        </mxCell>
        <mxCell id="q82wBXD-_0V-6gVfcb_9-40" value="&lt;b&gt;大模型&lt;/b&gt;" style="shape=process;whiteSpace=wrap;html=1;backgroundOutline=1;" vertex="1" parent="1">
          <mxGeometry x="1591" y="1740" width="120" height="60" as="geometry" />
        </mxCell>
        <mxCell id="q82wBXD-_0V-6gVfcb_9-42" value="" style="html=1;verticalLabelPosition=bottom;align=center;labelBackgroundColor=#ffffff;verticalAlign=top;strokeWidth=2;strokeColor=#0080F0;shadow=0;dashed=0;shape=mxgraph.ios7.icons.add;" vertex="1" parent="1">
          <mxGeometry x="1546" y="1754" width="30" height="30" as="geometry" />
        </mxCell>
        <mxCell id="q82wBXD-_0V-6gVfcb_9-43" value="前端再输入岗位JD时，提示用户可进行关键点的标识" style="whiteSpace=wrap;html=1;" vertex="1" parent="1">
          <mxGeometry x="1411" y="1880" width="119" height="90" as="geometry" />
        </mxCell>
        <mxCell id="q82wBXD-_0V-6gVfcb_9-45" value="模型根据用户的标识,进行权重的分配。如果没有，则自行研判" style="whiteSpace=wrap;html=1;" vertex="1" parent="1">
          <mxGeometry x="1591" y="1880" width="119" height="90" as="geometry" />
        </mxCell>
      </root>
    </mxGraphModel>
  </diagram>
</mxfile>
